<svg width="513" height="108" viewBox="0 0 513 108" fill="none" xmlns="http://www.w3.org/2000/svg">
<g clip-path="url(#clip0_138_15)">
<path d="M21.1425 74.177C20.2193 71.381 19.7607 67.851 19.7607 63.105C19.7607 58.357 20.2193 54.819 21.1425 52.03C23.7209 44.027 30.5538 39.654 39.4994 39.654C46.143 39.654 51.4038 42.354 54.9134 46.634C55.1837 47.004 55.2759 47.562 54.8203 47.934L49.0097 53.053C48.5461 53.428 48.0865 53.334 47.715 52.87C45.4982 50.358 43.1922 48.96 39.5014 48.96C35.5362 48.96 32.4933 50.915 31.1986 54.823C30.4656 57.062 30.2774 59.664 30.2774 63.106C30.2774 66.549 30.4636 69.246 31.1986 71.481C32.4913 75.293 35.5362 77.248 39.5014 77.248C43.1922 77.248 45.4992 75.851 47.715 73.345C48.0865 72.873 48.5461 72.873 49.0097 73.246L54.8203 78.366C55.2759 78.736 55.1847 79.203 54.9134 79.67C51.4058 83.86 46.145 86.556 39.4994 86.556C30.5538 86.552 23.7209 82.176 21.1425 74.177ZM222.73 74.177C221.807 71.381 221.348 67.851 221.348 63.105C221.348 58.357 221.807 54.819 222.73 52.03C225.315 44.027 232.139 39.654 241.086 39.654C247.732 39.654 252.994 42.354 256.498 46.634C256.772 47.004 256.869 47.562 256.403 47.934L250.59 53.053C250.13 53.428 249.671 53.334 249.301 52.87C247.088 50.358 244.78 48.96 241.086 48.96C237.122 48.96 234.076 50.915 232.786 54.823C232.046 57.062 231.867 59.664 231.867 63.106C231.867 66.549 232.047 69.246 232.786 71.481C234.076 75.293 237.122 77.248 241.086 77.248C244.781 77.248 247.088 75.851 249.301 73.345C249.671 72.873 250.131 72.873 250.59 73.246L256.403 78.366C256.868 78.736 256.773 79.203 256.498 79.67C252.994 83.86 247.732 86.556 241.086 86.556C232.139 86.552 225.316 82.176 222.73 74.177ZM455.723 85.531C455.169 85.531 454.802 85.161 454.802 84.599V58.732C454.802 52.962 451.938 48.958 446.401 48.958C441.051 48.958 437.915 52.959 437.915 58.732V84.599C437.915 85.16 437.543 85.531 436.993 85.531H428.501C427.949 85.531 427.576 85.161 427.576 84.599V58.732C427.576 52.962 424.718 48.958 419.189 48.958C413.835 48.958 410.695 52.959 410.695 58.732V84.599C410.695 85.16 410.327 85.531 409.772 85.531H401.284C400.727 85.531 400.363 85.161 400.363 84.599V41.607C400.363 41.047 400.727 40.674 401.284 40.674H409.772C410.327 40.674 410.695 41.047 410.695 41.607V44.864H410.788C412.729 42.072 416.601 39.654 422.504 39.654C427.766 39.654 432.009 41.79 434.679 45.607H434.775C438.187 41.889 442.619 39.654 448.985 39.654C459.314 39.654 465.132 46.724 465.132 56.31V84.597C465.132 85.16 464.76 85.531 464.205 85.531H455.723ZM477.951 102.28C477.399 102.28 477.03 101.906 477.03 101.345V93.903C477.03 93.347 477.399 92.968 477.951 92.968H479.613C483.117 92.968 484.876 91.393 486.256 87.668L487.55 83.853L471.31 41.605C471.124 41.045 471.495 40.672 472.051 40.672H481.183C481.737 40.672 482.106 41.046 482.286 41.605L492.347 70.918H492.529L502.127 41.605C502.311 41.045 502.682 40.672 503.229 40.672H511.993C512.551 40.672 512.921 41.046 512.733 41.605L495.76 88.32C491.888 98.93 488.191 102.277 480.813 102.277L477.95 102.28H477.951ZM63.4014 74.18C62.3871 71.011 61.9255 68.036 61.9255 63.105C61.9255 58.181 62.3861 55.202 63.4014 52.045C65.8926 44.228 72.7135 39.666 81.7532 39.666C90.6978 39.666 97.5227 44.226 100.014 52.045C101.023 55.202 101.488 58.181 101.488 63.105C101.488 68.035 101.023 71.011 100.014 74.181C97.5207 81.992 90.6978 86.551 81.7532 86.551C72.7135 86.552 65.8926 81.993 63.4014 74.18ZM90.053 71.39C90.793 69.067 90.9762 66.923 90.9762 63.106C90.9762 59.3 90.793 57.25 90.053 54.834C88.7633 51.115 85.9026 48.97 81.7532 48.97C77.6059 48.97 74.65 51.115 73.3623 54.834C72.6274 57.252 72.4411 59.3 72.4411 63.106C72.4411 66.923 72.6274 69.066 73.3623 71.39C74.65 75.115 77.6079 77.248 81.7532 77.248C85.9026 77.246 88.7633 75.114 90.053 71.39ZM281.22 39.654C273.931 39.654 269.043 41.42 265.442 44.027C265.077 44.31 264.982 44.769 265.263 45.234L268.667 51.379C268.953 51.845 269.499 51.939 269.965 51.566C272.087 49.894 275.128 48.493 280.114 48.493C287.383 48.493 289.85 50.696 289.977 55.537L289.978 55.597C289.982 55.709 289.982 55.824 289.982 55.944V70.462C289.982 75.58 286.477 78.088 280.114 78.088C275.127 78.088 272.456 76.231 272.456 72.511C272.456 68.321 275.41 66.455 282.05 66.455L284.069 66.459C284.622 66.459 284.994 66.086 284.994 65.532V59.566C284.994 59.01 284.622 58.638 284.069 58.638H283.625L280.391 58.636C269.413 58.636 262.579 63.11 262.579 72.875C262.579 82.275 269.413 86.554 277.528 86.554C283.797 86.554 287.95 84.416 290.073 81.344H290.163V84.602C290.163 85.162 290.536 85.535 291.088 85.535H298.836C299.391 85.535 299.761 85.164 299.761 84.602V55.29C299.762 44.311 294.782 39.654 281.22 39.654ZM170.995 58.633C170.755 58.633 170.597 58.793 170.597 59.033V66.05C170.597 66.29 170.755 66.452 170.995 66.452H193.841C194.488 66.452 194.857 66.082 194.857 65.528C194.857 58.263 194.392 55.191 193.381 52.03C190.887 44.4 184.246 39.655 175.111 39.655C166.256 39.655 159.431 44.213 156.936 52.03C156.018 54.915 155.46 58.452 155.46 63.105C155.46 67.758 156.106 71.198 157.035 74.085C159.524 81.899 166.164 86.552 175.573 86.552C183.782 86.552 190.06 83.388 193.839 78.922C194.205 78.459 194.205 77.994 193.746 77.618L188.308 72.78C187.842 72.409 187.382 72.505 186.919 72.966C184.708 75.388 181.479 77.248 176.496 77.248C171.52 77.248 168.01 74.83 166.533 70.458C166.299 69.8255 166.124 69.1727 166.01 68.508H166.008C165.672 66.613 165.474 64.769 165.474 62.061C165.546 59.508 165.694 57.878 166.056 55.806C166.06 55.777 166.066 55.752 166.071 55.726L166.081 55.666V55.668C166.169 55.18 166.29 54.721 166.439 54.263C167.639 50.635 170.959 48.495 175.207 48.495C179.359 48.495 182.675 50.635 183.875 54.263C184.246 55.386 184.428 56.497 184.428 58.083C184.428 58.453 184.244 58.636 183.875 58.636H171.753L171.755 58.635L170.995 58.633ZM146.888 22.256H138.415C137.856 22.256 137.489 22.628 137.489 23.18V65.576H137.442C137.342 68.141 137.064 69.827 136.57 71.408C135.373 75.121 132.511 77.164 128.278 77.164C124.132 77.164 121.279 75.121 120.076 71.408C119.432 69.361 119.16 67.133 119.16 63.045C119.16 58.959 119.432 56.726 120.076 54.687C121.256 51.044 124.018 48.987 128.026 48.906H131.644C131.82 48.863 131.934 48.724 131.934 48.524L131.981 40.029C131.987 39.9332 131.954 39.8391 131.891 39.7667C131.828 39.6942 131.74 39.6492 131.644 39.641L128.756 39.631H125.362C117.934 39.71 112.498 43.327 110.221 50.403C109.115 53.845 108.654 57.01 108.654 63.045C108.654 69.083 109.115 72.244 110.221 75.679C112.523 82.835 118.051 86.459 125.604 86.459C131.595 86.459 135.281 84.233 137.394 81.162H137.485V84.507C137.485 85.067 137.855 85.438 138.412 85.438H146.885C147.439 85.438 147.808 85.068 147.808 84.508V23.18C147.812 22.626 147.442 22.256 146.889 22.256M369.032 58.633C368.796 58.633 368.634 58.793 368.634 59.033V66.05C368.634 66.29 368.796 66.452 369.032 66.452H391.884C392.529 66.452 392.898 66.082 392.898 65.528C392.898 58.263 392.435 55.191 391.424 52.03C388.929 44.4 382.287 39.655 373.157 39.655C364.298 39.655 357.473 44.213 354.979 52.03C354.059 54.915 353.502 58.452 353.502 63.105C353.502 67.758 354.149 71.198 355.077 74.085C357.564 81.899 364.207 86.552 373.616 86.552C381.824 86.552 388.103 83.388 391.884 78.922C392.25 78.459 392.25 77.994 391.789 77.618L386.35 72.78C385.887 72.409 385.427 72.505 384.964 72.966C382.753 75.388 379.525 77.248 374.539 77.248C369.563 77.248 366.054 74.83 364.576 70.458C364.342 69.8256 364.168 69.1728 364.056 68.508H364.054C363.716 66.613 363.519 64.769 363.519 62.061C363.587 59.508 363.734 57.878 364.099 55.806C364.105 55.7796 364.11 55.7529 364.113 55.726C364.117 55.704 364.121 55.688 364.124 55.666V55.668C364.213 55.1923 364.333 54.723 364.483 54.263C365.681 50.635 369.004 48.495 373.252 48.495C377.404 48.495 380.719 50.635 381.919 54.263C382.289 55.386 382.475 56.497 382.475 58.083C382.475 58.453 382.289 58.636 381.919 58.636H369.797V58.635L369.032 58.633ZM336.876 22.256C336.321 22.256 335.951 22.629 335.951 23.182V65.64C335.806 68.21 335.526 69.897 335.032 71.48C333.832 75.2 330.966 77.248 326.728 77.248C322.58 77.248 319.72 75.2 318.516 71.479C317.875 69.429 317.594 67.199 317.594 63.105C317.594 59.013 317.871 56.775 318.516 54.733C319.695 51.085 322.463 49.043 326.479 48.963L330.102 48.965C330.656 48.965 331.027 48.593 331.027 48.039V40.583C331.027 40.027 330.656 39.655 330.102 39.655H329.658L324.181 39.654H323.81C316.374 39.733 310.929 43.356 308.65 50.443C307.541 53.89 307.082 57.056 307.082 63.101C307.082 69.148 307.541 72.315 308.65 75.756C310.954 82.92 316.493 86.55 324.056 86.55C330.055 86.55 333.745 84.322 335.865 81.246L335.955 84.596C335.955 85.158 336.325 85.528 336.882 85.528H345.37C345.923 85.528 346.295 85.16 346.295 84.595V23.182C346.288 22.628 345.917 22.256 345.367 22.256H336.875H336.876ZM222.037 98.218V106.698C222.037 107.255 222.408 107.625 222.962 107.625H254.422C254.983 107.625 255.356 107.253 255.356 106.697V98.218C255.356 97.668 254.984 97.296 254.421 97.296H222.962C222.407 97.296 222.037 97.668 222.037 98.218Z" fill="white"/>
<path d="M214.05 0.299945C214.036 0.284945 214.027 0.266945 214.014 0.254945L214.011 0.252945C213.922 0.169041 213.818 0.103488 213.704 0.0600657C213.59 0.0166431 213.468 -0.00378982 213.346 -5.48207e-05H1.28463C1.21453 -5.48207e-05 1.14845 0.00694518 1.08437 0.0179452L1.0303 0.0319452C0.988241 0.0429452 0.944184 0.0519452 0.906134 0.0679452C0.899559 0.0701373 0.893448 0.0735279 0.888111 0.0779452C0.559684 0.210945 0.357422 0.516945 0.357422 0.922945V106.691C0.357422 107.014 0.483586 107.267 0.695861 107.428C0.711882 107.444 0.7259 107.458 0.747929 107.469V107.471C0.909287 107.569 1.0956 107.619 1.28463 107.615H213.344C213.656 107.615 213.91 107.495 214.07 107.288C214.204 107.118 214.275 106.906 214.269 106.689V0.923945C214.275 0.696139 214.197 0.474089 214.05 0.299945ZM11.612 97.2929C11.5459 97.2929 11.4819 97.2869 11.4238 97.2779C11.4058 97.2749 11.3857 97.2659 11.3677 97.2609C11.3247 97.2509 11.2816 97.2429 11.2426 97.2259C11.2355 97.2249 11.2315 97.2189 11.2245 97.2169C10.8971 97.0849 10.6978 96.7799 10.6958 96.3779V11.2469C10.6958 10.8389 10.8971 10.5369 11.2245 10.3999C11.2335 10.3979 11.2385 10.3929 11.2446 10.3909C11.2816 10.3769 11.4048 10.3459 11.4238 10.3409C11.4839 10.3309 11.549 10.3259 11.616 10.3259H203.01C203.078 10.3259 203.141 10.3319 203.202 10.3409C203.222 10.3459 203.24 10.3529 203.256 10.3589C203.298 10.3665 203.34 10.3779 203.381 10.3929C203.391 10.3949 203.394 10.3999 203.401 10.4019C203.729 10.5359 203.929 10.8419 203.929 11.2479V96.3799C203.928 96.7829 203.726 97.0879 203.403 97.2209C203.396 97.2229 203.393 97.2279 203.383 97.2299C203.342 97.2442 203.301 97.2556 203.259 97.2639C203.239 97.2689 203.224 97.2779 203.204 97.2819C203.143 97.2919 203.084 97.2959 203.017 97.2959H11.612V97.2929Z" fill="white"/>
</g>
<defs>
<clipPath id="clip0_138_15">
<rect width="513" height="108" fill="white"/>
</clipPath>
</defs>
</svg>
