<svg width="250" height="35" viewBox="0 0 250 35" fill="none" xmlns="http://www.w3.org/2000/svg">
<path d="M0.06 27V2.16H16.764V6.156H4.452V12.132H15.684V16.128H4.452V23.004H16.764V27H0.06ZM19.2348 8.748L19.6668 8.1H23.3028L28.0548 23.328H28.5948L33.3468 8.1H36.9828L37.4148 8.748L31.5108 27H25.1748L19.2348 8.748ZM40.4017 21.312V13.788C40.4017 9.996 42.2977 8.1 46.0897 8.1H56.4577V28.512C56.4577 32.304 54.5617 34.2 50.7697 34.2H43.8937L41.9857 32.796V30.528H50.5897C51.6937 30.528 52.2457 29.976 52.2457 28.872V27H46.0897C42.2977 27 40.4017 25.104 40.4017 21.312ZM44.6137 21.672C44.6137 22.776 45.1657 23.328 46.2697 23.328H52.2457V11.772H46.2697C45.1657 11.772 44.6137 12.324 44.6137 13.428V21.672ZM61.4628 21.312V13.788C61.4628 9.996 63.3588 8.1 67.1508 8.1H71.8308C75.5988 8.1 77.4828 9.996 77.4828 13.788V19.116H65.6748V21.672C65.6748 22.776 66.2268 23.328 67.3308 23.328H76.7628V25.596L74.8548 27H67.1508C63.3588 27 61.4628 25.104 61.4628 21.312ZM65.6748 15.84H73.2708V13.428C73.2708 12.324 72.7188 11.772 71.6148 11.772H67.3308C66.2268 11.772 65.6748 12.324 65.6748 13.428V15.84ZM82.5984 27V8.1H92.9664C96.7344 8.1 98.6184 9.996 98.6184 13.788V27H94.4064V13.428C94.4064 12.324 93.8544 11.772 92.7504 11.772H86.8104V27H82.5984ZM103.76 4.824V0.539999H108.188V4.824H103.76ZM103.868 27V8.1H108.08V27H103.868ZM113.358 4.824V0.539999H117.786V4.824H113.358ZM113.466 27V8.1H117.678V27H113.466ZM132.072 27V2.16H136.464V27H132.072ZM141.827 21.312V13.788C141.827 9.996 143.723 8.1 147.515 8.1H157.883V28.512C157.883 32.304 155.987 34.2 152.195 34.2H145.319L143.411 32.796V30.528H152.015C153.119 30.528 153.671 29.976 153.671 28.872V27H147.515C143.723 27 141.827 25.104 141.827 21.312ZM146.039 21.672C146.039 22.776 146.591 23.328 147.695 23.328H153.671V11.772H147.695C146.591 11.772 146.039 12.324 146.039 13.428V21.672ZM162.889 21.312V13.788C162.889 9.996 164.785 8.1 168.577 8.1H173.617C177.385 8.1 179.269 9.996 179.269 13.788V21.312C179.269 25.104 177.385 27 173.617 27H168.577C164.785 27 162.889 25.104 162.889 21.312ZM167.101 21.672C167.101 22.776 167.653 23.328 168.757 23.328H173.401C174.505 23.328 175.057 22.776 175.057 21.672V13.428C175.057 12.324 174.505 11.772 173.401 11.772H168.757C167.653 11.772 167.101 12.324 167.101 13.428V21.672ZM183.692 25.596V23.328H192.008C193.112 23.328 193.664 22.74 193.664 21.564C193.664 20.34 193.208 19.644 192.296 19.476L188.264 18.828C185.216 18.3 183.692 16.572 183.692 13.644C183.692 9.948 185.588 8.1 189.38 8.1H195.104L197.012 9.504V11.772H189.56C188.432 11.772 187.868 12.36 187.868 13.536C187.868 14.712 188.348 15.384 189.308 15.552L193.34 16.2C196.364 16.704 197.876 18.444 197.876 21.42C197.876 25.14 195.968 27 192.152 27H185.6L183.692 25.596ZM202.552 27V0.36H206.764V8.1H212.92C216.688 8.1 218.572 9.996 218.572 13.788V27H214.36V13.428C214.36 12.324 213.808 11.772 212.704 11.772H206.764V27H202.552ZM223.713 4.824V0.539999H228.141V4.824H223.713ZM223.821 27V8.1H228.033V27H223.821ZM233.419 27V8.1H243.787C247.555 8.1 249.439 9.996 249.439 13.788V27H245.227V13.428C245.227 12.324 244.675 11.772 243.571 11.772H237.631V27H233.419Z" fill="white"/>
</svg>
